<svg width="120" height="117" viewBox="0 0 120 117" fill="none" xmlns="http://www.w3.org/2000/svg">
<g id="Frame" clip-path="url(#clip0_3_1322)">
<g id="Group">
<g id="OBJECTS">
<g id="Group_2">
<g id="Group_3">
<path id="Vector" fill-rule="evenodd" clip-rule="evenodd" d="M14.9396 67.1728C15.2557 67.2381 18.9155 67.4746 22.6682 66.734C26.421 65.9966 28.4941 64.3007 27.6357 63.9646C26.7742 63.6317 24.1216 63.0933 22.0577 61.5717C19.9939 60.0501 20.2976 57.9777 21.0661 56.761C21.8315 55.535 23.133 54.9873 23.8892 55.5381C24.6453 56.0888 25.544 57.1157 25.4944 57.2744C25.4324 57.4238 24.5245 58.5751 24.5245 58.5751L22.6031 58.4475C22.6031 58.4475 22.2406 58.8707 22.5814 59.045C22.913 59.2192 24.5492 60.1776 25.2558 59.9349C25.9716 59.6798 27.1585 57.8563 27.1089 56.9757C27.0624 56.1044 25.0513 54.1129 24.5678 53.8204C24.0968 53.5341 20.7717 54.0662 19.8792 54.4676C18.9805 54.8784 17.6945 56.6614 17.5674 58.544C17.3071 62.6484 17.521 63.3423 14.9396 67.1759V67.1728Z" fill="#5D1E14"/>
<path id="Vector_2" fill-rule="evenodd" clip-rule="evenodd" d="M27.6359 63.9646C28.4974 64.2976 26.4212 65.9935 22.6684 66.734C22.0424 66.8554 21.432 66.9519 20.8308 67.0328C20.1428 65.5391 18.925 62.5706 18.9745 60.1932C19.0427 56.8948 20.0592 55.0028 21.7357 54.5983C23.4277 54.2031 24.3449 54.6792 25.0794 55.6345C25.8169 56.6023 26.4615 57.2339 26.0555 57.9839C25.6495 58.7307 24.5061 59.2815 24.0319 59.1663C23.7003 59.0823 22.8884 58.8583 22.4484 58.7338C22.4794 58.5907 22.6002 58.4506 22.6002 58.4506L24.5216 58.5782C24.5216 58.5782 25.4295 57.4269 25.4915 57.2775C25.5411 57.1188 24.6455 56.0919 23.8863 55.5412C23.1302 54.9904 21.8286 55.5381 21.0632 56.7641C20.2947 57.9808 19.991 60.0532 22.0548 61.5748C24.1187 63.0964 26.7714 63.6348 27.6328 63.9677L27.6359 63.9646Z" fill="#4F1A11"/>
<path id="Vector_3" fill-rule="evenodd" clip-rule="evenodd" d="M11.2181 68.0379C17.2765 66.5411 19.3961 76.0039 21.5467 87.984C23.6881 99.9766 29.5605 109.094 23.5114 110.591C17.4531 112.087 4.8685 107.454 1.10645 93.1619C-2.6649 78.8698 5.16909 69.5346 11.215 68.0379H11.2181Z" fill="#D67D09"/>
<path id="Vector_4" fill-rule="evenodd" clip-rule="evenodd" d="M11.4659 69.8613C8.16555 70.6766 5.34246 73.8537 3.8209 76.7631C1.22403 81.7574 1.17445 87.5421 2.57515 92.8974C4.05332 98.5141 7.24518 103.418 12.1879 106.524C15.0544 108.338 19.5199 109.956 22.938 109.109C23.316 109.016 23.753 108.851 23.9947 108.524C24.8717 107.292 23.6476 103.21 23.2757 101.918C22.6931 99.8646 22.0424 97.8388 21.4598 95.782C20.7687 93.3735 20.149 90.937 19.7089 88.457C19.2813 86.0858 18.8536 83.7023 18.333 81.3529C17.9085 79.3925 17.4188 77.4041 16.7774 75.5091C16.1948 73.8132 14.9459 70.5366 13.0649 69.8862C12.5412 69.7026 12.002 69.7244 11.469 69.8582L11.4659 69.8613Z" fill="#DD810D"/>
<path id="Vector_5" fill-rule="evenodd" clip-rule="evenodd" d="M13.4152 67.3035C19.7556 65.7352 24.345 74.7467 27.2363 86.5433C30.1338 98.3491 33.589 108.322 26.9667 109.735C20.3537 111.148 7.18337 104.025 4.28591 92.219C1.39154 80.4225 7.08421 68.8687 13.4121 67.3035H13.4152Z" fill="#E78D24"/>
<path id="Vector_6" fill-rule="evenodd" clip-rule="evenodd" d="M24.6859 67.6178C22.1603 68.2432 20.2545 71.8933 19.4085 74.336C17.859 78.8044 17.7227 84.0041 18.8848 88.7402C20.1026 93.7065 23.2852 97.9758 27.0813 100.91C29.4427 102.737 33.7377 105.114 36.6197 104.501C36.9172 104.448 37.255 104.333 37.4595 104.072C38.3179 103.001 37.7415 99.3262 37.5215 98.0286C36.7654 93.6722 35.4607 89.2194 34.4009 84.9034C33.3907 80.7897 32.0395 76.1781 30.0841 72.4223C29.2351 70.7793 27.5709 68.0223 25.755 67.5991C25.3893 67.512 25.0392 67.5306 24.6828 67.6178H24.6859Z" fill="#EF9026"/>
<path id="Vector_7" fill-rule="evenodd" clip-rule="evenodd" d="M30.3723 63.2987C24.314 64.7954 26.8117 74.1586 30.4622 85.7778C34.1096 97.3876 33.1179 108.201 39.1732 106.704C45.2191 105.207 54.2338 95.2343 50.952 80.8208C47.6734 66.4073 36.4275 61.802 30.3692 63.2987H30.3723Z" fill="#D67D09"/>
<path id="Vector_8" fill-rule="evenodd" clip-rule="evenodd" d="M30.7782 64.951C34.0785 64.1357 38.0451 65.62 40.738 67.4871C45.3492 70.6984 48.0669 75.7985 49.3033 81.1942C50.5925 86.8576 50.0316 92.6889 47.0938 97.7455C45.3925 100.689 42.1883 104.205 38.7702 105.049C38.3921 105.142 37.9304 105.201 37.5647 105.024C36.2229 104.352 35.4141 100.154 35.1352 98.8377C34.7138 96.756 34.3512 94.6462 33.9174 92.5645C33.4122 90.1 32.8358 87.6542 32.0797 85.2519C31.3608 82.9523 30.6418 80.6528 30.0127 78.319C29.4828 76.3866 28.9963 74.4075 28.6864 72.4192C28.4168 70.6455 28.0078 67.1635 29.3744 65.7072C29.7524 65.2995 30.2421 65.0786 30.7782 64.9479V64.951Z" fill="#DD810D"/>
<path id="Vector_9" fill-rule="evenodd" clip-rule="evenodd" d="M27.98 63.6908C21.6397 65.2591 21.7451 75.3784 24.6394 87.1843C27.5369 98.9902 29.0833 109.424 35.6033 107.588C42.111 105.755 50.4873 93.3144 47.5898 81.5085C44.6924 69.7026 34.3204 62.1225 27.98 63.6908Z" fill="#E78D24"/>
<path id="Vector_10" fill-rule="evenodd" clip-rule="evenodd" d="M29.892 66.1864C32.4176 65.5609 35.7954 67.9196 37.6734 69.6746C41.1131 72.9077 43.6387 77.4508 44.8008 82.1962C46.0156 87.1532 45.1727 92.4182 43.1677 96.7871C41.9219 99.5067 39.2166 103.611 36.3842 104.426C36.0929 104.51 35.7396 104.563 35.4422 104.436C34.184 103.888 32.9971 100.353 32.5912 99.1146C31.2432 94.8951 30.3383 90.3396 29.2847 86.0361C28.2744 81.9099 27.3385 77.1988 27.3354 72.9699C27.3262 71.1185 27.5245 67.8885 28.9345 66.6687C29.2196 66.4291 29.5388 66.2735 29.8951 66.1864H29.892Z" fill="#EF9026"/>
<path id="Vector_11" fill-rule="evenodd" clip-rule="evenodd" d="M20.7192 65.2622C1.9616 69.9018 17.8186 111.985 31.3577 108.637C48.4388 104.411 39.4768 60.6226 20.7192 65.2622Z" fill="#F29C3C"/>
<path id="Vector_12" fill-rule="evenodd" clip-rule="evenodd" d="M21.6489 69.0616C22.9071 68.7504 24.1497 68.7442 25.3986 69.127C31.1966 70.8726 34.6054 79.517 35.7458 84.8505C36.8676 90.0626 37.4006 100.11 32.5911 103.801C31.9342 104.299 31.2183 104.641 30.4219 104.84C30.2329 104.887 30.05 104.909 29.861 104.912C27.7073 104.965 25.2499 102.516 23.9762 100.997C21.305 97.8077 19.2535 93.6162 17.9334 89.6799C16.074 84.1348 13.502 71.0749 21.6458 69.0616H21.6489Z" fill="#F3A549"/>
<path id="Vector_13" fill-rule="evenodd" clip-rule="evenodd" d="M24.3171 85.7809C24.7014 87.1687 25.8418 88.0587 26.9233 87.7942C27.9924 87.5297 28.5905 86.2103 28.2899 84.8007L24.3171 85.784V85.7809Z" fill="#360804"/>
<path id="Vector_14" fill-rule="evenodd" clip-rule="evenodd" d="M30.4188 102.049C23.7531 103.698 16.9975 99.989 14.3355 93.582L17.1338 92.8912L18.3269 95.7664L20.2947 95.3121C20.2947 95.3121 20.18 93.2646 20.0778 92.1631L33.3875 88.8709L34.4628 91.4847L36.4275 91.0211C36.4275 91.0211 36.3408 89.3003 36.2385 88.1645L40.7443 87.0505C41.1285 91.4318 39.5481 95.6295 36.6476 98.5328C36.3346 97.8388 36.0681 97.2601 36.0681 97.2601L34.1127 97.7673L34.3513 100.375C33.1675 101.125 31.8412 101.697 30.4157 102.052L30.4188 102.049Z" fill="#360804"/>
<path id="Vector_15" fill-rule="evenodd" clip-rule="evenodd" d="M35.4391 74.7934C32.1604 75.6056 30.0501 78.7826 30.3414 82.1931L43.3784 78.9693C42.0707 75.8109 38.7301 73.9813 35.4422 74.7934H35.4391Z" fill="#360804"/>
<path id="Vector_16" fill-rule="evenodd" clip-rule="evenodd" d="M42.0643 79.293C41.0262 77.0058 38.8911 75.4686 36.5266 75.2041C35.7736 75.1232 35.0051 75.1668 34.2396 75.3566C34.0289 75.4095 33.8337 75.4686 33.6385 75.5371C34.1901 75.201 34.785 74.9521 35.4327 74.7903C35.7054 74.7218 35.9719 74.6783 36.2322 74.6472C39.2444 74.2831 42.1728 76.0692 43.3721 78.9631L42.0612 79.2867L42.0643 79.293Z" fill="#B3621F"/>
<path id="Vector_17" fill-rule="evenodd" clip-rule="evenodd" d="M12.9287 80.3603C16.2074 79.5481 19.548 81.3809 20.865 84.5362L7.82796 87.76C7.52427 84.3526 9.63461 81.1756 12.9256 80.3603H12.9287Z" fill="#360804"/>
<path id="Vector_18" fill-rule="evenodd" clip-rule="evenodd" d="M9.12943 87.4363C9.00237 84.9221 10.18 82.5665 12.1539 81.2316C12.7737 80.8115 13.4834 80.491 14.2488 80.3012C14.4471 80.2514 14.661 80.2109 14.8655 80.1829C14.2209 80.1425 13.5701 80.2016 12.9318 80.3603C12.6591 80.4287 12.4019 80.5127 12.1478 80.6092C9.31227 81.689 7.55519 84.6358 7.83409 87.76L9.13253 87.4394L9.12943 87.4363Z" fill="#B3621F"/>
<path id="Vector_19" fill-rule="evenodd" clip-rule="evenodd" d="M26.8179 87.3617C27.0163 87.3119 27.2053 87.2216 27.3757 87.1003C27.9893 86.6584 28.3302 85.7809 28.2589 84.8069L28.2899 84.8007C28.5347 85.9334 28.1876 87.0131 27.4935 87.5328C27.323 87.6542 27.1247 87.7475 26.9233 87.7973C25.8449 88.0649 24.7045 87.175 24.3171 85.784L24.3605 85.7747C24.8408 86.9167 25.8542 87.6044 26.8179 87.3648V87.3617Z" fill="#B3621F"/>
<path id="Vector_20" fill-rule="evenodd" clip-rule="evenodd" d="M37.1 95.8442C38.8633 93.6567 39.9727 90.9246 40.2144 88.0089C40.2361 87.7351 40.2547 87.4519 40.264 87.1719L40.7474 87.0536C40.8838 88.6064 40.7722 90.1404 40.4499 91.5905C39.9355 93.8496 38.9005 95.9251 37.4595 97.6552C37.1992 97.954 36.9296 98.2558 36.6538 98.5359C36.3408 97.8419 36.0743 97.2632 36.0743 97.2632H36.065L34.8936 97.5681L34.122 97.7704L34.3606 100.378C34.1778 100.49 33.9918 100.602 33.8059 100.705C33.6292 100.804 33.4433 100.907 33.2698 101.007C32.4486 101.42 31.5871 101.756 30.6791 101.993C30.5954 102.015 30.5118 102.033 30.4281 102.055C29.9973 102.161 29.5728 102.245 29.1483 102.317C28.9964 102.332 28.857 102.354 28.7175 102.366C27.5926 102.488 26.4646 102.475 25.3707 102.313C25.3025 102.307 25.2344 102.301 25.1755 102.282C24.5278 102.186 23.8925 102.03 23.2666 101.841C21.1004 101.159 19.111 99.9455 17.4747 98.3056C16.1732 96.9862 15.0917 95.3899 14.351 93.5882L14.5494 93.5384C15.0607 94.4502 15.6588 95.2966 16.3219 96.0589C18.0697 98.0598 20.3288 99.5223 22.8048 100.282C23.0589 100.362 23.3192 100.434 23.5795 100.493C24.0289 100.605 24.472 100.686 24.9307 100.751C25.6217 100.848 26.319 100.888 27.0255 100.87C27.4005 100.854 27.7723 100.829 28.1411 100.795C28.7237 100.73 29.3125 100.627 29.8889 100.487C30.0872 100.437 30.2762 100.39 30.4746 100.331C31.2493 100.095 31.9992 99.7992 32.712 99.4414C32.9599 99.3138 33.214 99.1738 33.4557 99.0337C33.5828 98.9591 33.7067 98.8813 33.8307 98.7972L33.5952 96.199L34.5868 95.9407L35.5444 95.6824C35.5444 95.6824 35.8109 96.2643 36.1146 96.9582H36.1239C36.4709 96.6035 36.8056 96.2394 37.1093 95.8536L37.1 95.8442Z" fill="#B3621F"/>
</g>
<g id="Vector_21" style="mix-blend-mode:multiply" opacity="0.19">
<path d="M70.3449 116.69C31.4945 116.69 4.57764e-05 113.834 4.57764e-05 110.311C4.57764e-05 106.788 31.4945 103.932 70.3449 103.932C109.195 103.932 140.69 106.788 140.69 110.311C140.69 113.834 109.195 116.69 70.3449 116.69Z" fill="#4D4D4D"/>
</g>
<g id="Group_4">
<path id="Vector_22" fill-rule="evenodd" clip-rule="evenodd" d="M88.5725 13.7601C82.8117 6.62799 63.5707 6.62799 57.8067 13.7632C55.7863 19.5945 54.9155 27.8997 54.8008 40.191H47.0505C47.0505 25.1396 51.7453 17.463 60.4749 8.01582C61.0296 7.30946 61.6679 6.63421 62.3621 6.00876C65.4889 3.18953 69.7963 1.31317 73.1927 1.47498C76.586 1.31317 80.8935 3.18953 84.0233 6.00876C84.7175 6.63421 85.3559 7.30946 85.9106 8.01582C94.637 17.4599 99.335 25.1396 99.335 40.191H91.5877C91.47 27.8966 90.5992 19.5945 88.5787 13.7601H88.5725Z" fill="#7A3707"/>
<g id="Group_5">
<g id="Group_6">
<path id="Vector_23" d="M98.162 33.7669L99.3953 34.3653L87.3568 59.3824L86.1235 58.784L98.162 33.7669Z" fill="#EFDCD7"/>
<path id="Vector_24" d="M98.5729 34.8849L98.8157 35.0026L87.6427 58.2313L87.4 58.1136L98.5729 34.8849Z" fill="#F2F2F2"/>
</g>
<g id="Group_7">
<path id="Vector_25" fill-rule="evenodd" clip-rule="evenodd" d="M97.488 18.3779C97.488 18.3779 97.4973 18.3747 97.5004 18.3747C102.425 16.3988 108.015 18.8073 109.983 23.7549C111.951 28.6963 109.552 34.3037 104.634 36.2827C104.631 36.2827 104.628 36.2858 104.625 36.2889C99.6975 38.2649 94.1071 35.8533 92.1424 30.9088C90.1777 25.9642 92.5732 20.36 97.4911 18.381L97.488 18.3779Z" fill="#B22975"/>
<g id="Vector_26" style="mix-blend-mode:screen" opacity="0.54">
<path fill-rule="evenodd" clip-rule="evenodd" d="M91.8356 24.6666C91.8759 25.7433 92.0835 26.8324 92.505 27.8873C94.4697 32.8349 100.06 35.2434 104.987 33.2706C104.987 33.2706 104.994 33.2674 104.997 33.2643C107.857 32.113 109.856 29.7325 110.649 26.9724C110.795 30.9243 108.495 34.7206 104.631 36.2796C104.628 36.2796 104.625 36.2827 104.622 36.2858C99.6944 38.2618 94.104 35.8502 92.1393 30.9056C91.3181 28.8364 91.2685 26.655 91.8387 24.6666H91.8356Z" fill="#B22975"/>
</g>
<path id="Vector_27" fill-rule="evenodd" clip-rule="evenodd" d="M91.913 30.2864C93.2827 33.3857 96.9859 35.4954 101.616 33.6284C102.17 33.4044 102.672 33.1181 103.125 32.7882C105.353 31.167 106.261 28.4194 105.238 25.8304C104.296 23.4406 101.656 22.2551 99.2852 23.1014C99.2264 23.1232 99.1675 23.1295 99.1086 23.1544C97.3267 23.87 95.8207 25.678 96.7163 27.9464C97.6335 30.2709 100.172 29.3249 100.46 29.2098C100.962 29.0075 101.219 28.6279 101.306 28.1985C101.377 27.8499 101.343 27.4703 101.219 27.1125C101.123 27.0502 100.959 27.0036 100.853 27.0036C100.853 27.0098 100.844 27.016 100.838 27.0222C100.522 27.6477 99.7811 27.9277 99.1334 27.6477C98.4578 27.3521 98.1448 26.5586 98.433 25.874C98.7119 25.2143 99.2078 24.7413 99.8337 24.4955C100.156 24.371 100.506 24.3026 100.884 24.3088C101.929 24.3244 103.212 24.9094 103.642 25.9985C104.417 27.962 103.893 29.969 102.455 31.111C102.155 31.3506 101.826 31.5653 101.445 31.7209C98.8266 32.7789 95.5139 32.1659 94.2433 28.9515C92.7559 25.177 95.1265 21.8599 98.1139 20.6556C98.1727 20.6339 98.2316 20.6152 98.2874 20.5965C102.022 19.1962 106.214 21.0664 107.705 24.8409C109.292 28.8581 107.761 33.1119 104.138 35.3616C103.661 35.6573 103.153 35.9218 102.604 36.1427C101.718 36.5005 100.828 36.7432 99.9453 36.8802C96.5551 36.5068 93.4686 34.2943 92.1144 30.8559C92.04 30.6692 91.9749 30.4825 91.9161 30.2958L91.913 30.2864Z" fill="#FFED6D"/>
<path id="Vector_28" opacity="0.39" fill-rule="evenodd" clip-rule="evenodd" d="M98.7275 26.0327C98.6625 26.1634 99.5921 24.9654 101.312 25.1956C103.038 25.373 103.754 26.764 103.72 26.6239C103.779 26.5492 103.156 24.7351 101.43 24.5577C99.7099 24.3275 98.6873 25.9487 98.7244 26.0358L98.7275 26.0327Z" fill="#F2F2F2"/>
<g id="Vector_29" style="mix-blend-mode:screen" opacity="0.54">
<path fill-rule="evenodd" clip-rule="evenodd" d="M93.977 22.1119C95.7589 20.0831 96.9985 19.0998 99.9486 18.7793C105.238 18.2036 109.016 21.975 109.815 27.0347L109.97 28.1922C110.28 23.8514 108.018 19.7252 103.732 18.409C100.661 17.4661 94.9439 18.7886 93.9739 22.1119H93.977Z" fill="#B22975"/>
</g>
<g id="Vector_30" style="mix-blend-mode:screen" opacity="0.54">
<path fill-rule="evenodd" clip-rule="evenodd" d="M95.0771 32.0445C97.2928 33.5631 99.4744 34.2041 102.065 33.0372C105.272 31.5933 106.428 27.6508 104.151 24.8876L103.184 23.9758C104.622 26.1136 105.629 28.1798 103.903 30.5945C101.603 33.812 98.2503 33.3328 95.074 32.0445H95.0771Z" fill="#B22975"/>
</g>
<path id="Vector_31" opacity="0.39" fill-rule="evenodd" clip-rule="evenodd" d="M100.884 31.3911C99.0095 31.945 96.0314 30.9617 95.4117 29.1631C92.5359 20.8268 106.078 18.1818 107.528 27.0813C107.99 29.9068 107.026 31.3911 105.542 33.5786C107.383 31.4907 108.393 30.0282 108.006 27.0098C106.723 17.0087 91.4544 20.1578 94.9716 29.3218C95.6844 31.1795 99.2109 32.5331 100.881 31.3911H100.884Z" fill="#F2F2F2"/>
</g>
</g>
<g id="Group_8">
<g id="Group_9">
<path id="Vector_32" d="M81.9966 35.9933L76.9144 54.0756L75.2472 53.4812L80.6486 35.0878L81.9966 35.9933Z" fill="#EFDCD7"/>
<path id="Vector_33" d="M76.5641 52.4543C76.7531 52.5104 76.9546 52.4014 77.0104 52.2116L80.76 39.4349C80.8158 39.2451 80.7073 39.0428 80.5183 38.9868C80.3293 38.9308 80.1278 39.0397 80.0721 39.2295L76.3224 52.0063C76.2666 52.1961 76.3751 52.3983 76.5641 52.4543Z" fill="#F2F2F2"/>
</g>
<g id="Group_10">
<path id="Vector_34" d="M86.9518 6.08655C86.9518 6.08655 91.8945 6.89871 93.2394 8.63816C94.4573 10.2127 93.32 12.5091 91.4916 12.5434C89.9825 12.5714 86.4497 7.95981 86.9518 6.08655Z" fill="#FFC9E4"/>
<path id="Vector_35" d="M83.8498 39.0459C83.8498 39.0459 78.907 38.2338 77.5621 36.4943C76.3443 34.9198 77.4816 32.6233 79.3099 32.5891C80.8191 32.5611 84.3518 37.1727 83.8498 39.0459Z" fill="#FFC9E4"/>
<path id="Vector_36" d="M83.8499 39.0459C83.8499 39.0459 85.2289 38.7161 85.7743 37.5679C86.1833 36.7059 86.0656 35.3368 85.2568 34.5121C85.0832 34.3348 84.8105 33.2457 84.6835 32.9998C83.5958 30.9057 80.813 29.3 79.8802 28.603C79.8802 28.603 78.4578 28.8986 77.8876 30.0811C77.243 31.4222 77.3453 32.8194 78.8731 34.4624C80.4008 36.1022 81.6435 36.765 83.8468 39.0459H83.8499Z" fill="#2FBDCC"/>
<path id="Vector_37" d="M85.2319 34.481C85.2319 34.481 86.611 34.1512 87.1564 33.003C87.5654 32.141 87.4477 30.7719 86.6388 29.9472C86.4653 29.7699 86.1926 28.6808 86.0655 28.435C84.9778 26.3408 82.195 24.7351 81.2623 24.0381C81.2623 24.0381 79.8244 24.3244 79.2697 25.5162C78.6623 26.8231 78.7274 28.2545 80.2551 29.8975C81.7829 31.5373 83.0255 32.2001 85.2288 34.481H85.2319Z" fill="#FFED6D"/>
<path id="Vector_38" d="M86.614 29.9224C86.614 29.9224 87.993 29.5925 88.5384 28.4443C88.9475 27.5823 88.8421 26.2007 88.0209 25.3886C85.9446 23.3411 83.6732 21.7012 82.7838 19.7439C82.7838 19.7439 81.2622 19.8777 80.5991 21.1255C80.0041 22.2457 80.1125 23.6958 81.6403 25.3388C83.168 26.9787 84.4107 27.6415 86.614 29.9224Z" fill="#B22975"/>
<path id="Vector_39" d="M88.0208 25.3886C88.0208 25.3886 89.3998 25.0587 89.9452 23.9105C90.3542 23.0485 90.2365 21.6794 89.4277 20.8548C89.2541 20.6774 88.9814 19.5883 88.8544 19.3425C87.7667 17.2483 84.9839 15.6426 84.0511 14.9456C84.0511 14.9456 82.6287 15.2412 82.0585 16.4237C81.4139 17.7648 81.5162 19.162 83.0439 20.805C84.5717 22.448 85.8144 23.1077 88.0177 25.3886H88.0208Z" fill="#2FBDCC"/>
<path id="Vector_40" d="M89.4031 20.8268C89.4031 20.8268 90.7821 20.497 91.3275 19.3487C91.7366 18.4868 91.6188 17.1176 90.81 16.293C90.6364 16.1156 90.3637 15.0265 90.2367 14.7807C89.149 12.6865 86.3662 11.0809 85.4334 10.3839C85.4334 10.3839 83.9955 10.6701 83.4408 11.8619C82.8334 13.1688 82.8985 14.6002 84.4263 16.2432C85.954 17.8831 87.1967 18.5459 89.4 20.8268H89.4031Z" fill="#F6ECD6"/>
<path id="Vector_41" d="M89.4031 20.8268C89.4031 20.8268 90.7821 20.497 91.3275 19.3487C91.7366 18.4868 91.6188 17.1176 90.81 16.293C90.6364 16.1156 90.3637 15.0265 90.2367 14.7807C89.149 12.6865 86.3662 11.0809 85.4334 10.3839C85.4334 10.3839 83.9955 10.6701 83.4408 11.8619C82.8334 13.1688 82.8985 14.6002 84.4263 16.2432C85.954 17.8831 87.1967 18.5459 89.4 20.8268H89.4031Z" fill="#FFED6D"/>
<path id="Vector_42" d="M90.7852 16.265C90.7852 16.265 92.1642 15.9352 92.7096 14.7869C93.1186 13.925 93.0133 12.5434 92.192 11.7312C90.1158 9.6837 87.8443 8.04382 86.9549 6.08655C86.9549 6.08655 85.4334 6.22035 84.7702 7.46815C84.1752 8.58837 84.2837 10.0384 85.8114 11.6814C87.3392 13.3213 88.5818 13.9841 90.7852 16.265Z" fill="#FF3A52"/>
<g id="Vector_43" style="mix-blend-mode:multiply">
<path d="M85.8113 11.6814C87.3391 13.3213 88.5786 13.981 90.785 16.265C90.785 16.265 91.0454 16.2028 91.3862 16.0379C89.248 13.8628 88.0146 13.1782 86.4993 11.5539C84.9436 9.88286 84.8352 8.40791 85.4395 7.26901C85.7586 6.66534 86.2762 6.31683 86.7348 6.12079C86.2917 6.20792 85.2752 6.50664 84.767 7.46505C84.172 8.58527 84.2805 10.0384 85.8082 11.6783L85.8113 11.6814Z" fill="#E6E6E6"/>
</g>
<path id="Vector_44" d="M86.5025 11.557C88.0148 13.1813 89.2512 13.8659 91.3895 16.041C91.8295 15.8262 92.4028 15.4373 92.7127 14.79C93.1187 13.925 93.0133 12.5434 92.1952 11.7343C90.1189 9.68681 87.8474 8.04694 86.9581 6.09277C86.9581 6.09277 86.8775 6.099 86.7411 6.127C86.2856 6.32304 85.7681 6.66844 85.4458 7.27523C84.8415 8.41723 84.95 9.89219 86.5056 11.5601L86.5025 11.557Z" fill="#B22975"/>
<g id="Vector_45" style="mix-blend-mode:soft-light">
<path d="M85.5729 9.53745L90.4257 14.233C90.8379 14.6313 91.5011 14.6189 91.8977 14.205C92.2944 13.7912 92.282 13.1253 91.8698 12.727L87.017 8.03138C86.6048 7.63308 85.9416 7.64552 85.545 8.05938C85.1483 8.47324 85.1607 9.13915 85.5729 9.53745Z" fill="#FFC9E4"/>
</g>
<g id="Vector_46" style="mix-blend-mode:soft-light">
<path d="M84.0233 14.149L88.8762 18.8446C89.2883 19.2429 89.9515 19.2305 90.3481 18.8166C90.7448 18.4028 90.7324 17.7368 90.3203 17.3385L85.4674 12.6429C85.0552 12.2446 84.3921 12.2571 83.9954 12.671C83.5988 13.0848 83.6112 13.7507 84.0233 14.149Z" fill="#FFC9E4"/>
</g>
<g id="Vector_47" style="mix-blend-mode:soft-light">
<path d="M82.5607 18.4743L87.4135 23.1699C87.8257 23.5682 88.4888 23.5558 88.8855 23.1419C89.2822 22.7281 89.2698 22.0621 88.8576 21.6638L84.0047 16.9683C83.5926 16.57 82.9294 16.5824 82.5328 16.9963C82.1361 17.4101 82.1485 18.076 82.5607 18.4743Z" fill="#FFC9E4"/>
</g>
<g id="Vector_48" style="mix-blend-mode:soft-light">
<path d="M81.3087 23.3877L86.1616 28.0833C86.5737 28.4816 87.2369 28.4692 87.6335 28.0553C88.0302 27.6415 88.0178 26.9756 87.6057 26.5773L82.7528 21.8817C82.3406 21.4834 81.6775 21.4958 81.2808 21.9097C80.8842 22.3235 80.8966 22.9894 81.3087 23.3877Z" fill="#FFC9E4"/>
</g>
<g id="Vector_49" style="mix-blend-mode:soft-light">
<path d="M79.9762 27.7753L84.8291 32.4709C85.2412 32.8692 85.9044 32.8567 86.301 32.4428C86.6977 32.029 86.6853 31.3631 86.2731 30.9648L81.4203 26.2692C81.0081 25.8709 80.345 25.8833 79.9483 26.2972C79.5516 26.7111 79.564 27.377 79.9762 27.7753Z" fill="#FFC9E4"/>
</g>
<g id="Vector_50" style="mix-blend-mode:soft-light">
<path d="M78.4266 32.558L83.2795 37.2536C83.6916 37.6519 84.3548 37.6394 84.7515 37.2256C85.1481 36.8117 85.1357 36.1458 84.7236 35.7475L79.8707 31.0519C79.4586 30.6536 78.7954 30.6661 78.3987 31.0799C78.0021 31.4938 78.0145 32.1597 78.4266 32.558Z" fill="#FFC9E4"/>
</g>
</g>
</g>
<g id="Group_11">
<path id="Vector_51" fill-rule="evenodd" clip-rule="evenodd" d="M75.6036 24.3555C75.4673 23.8327 74.8072 21.6234 75.3061 18.7824C75.805 15.9414 77.2739 19.2616 77.2739 19.2616C77.2739 19.2616 77.6737 15.8387 79.688 16.682C81.6991 17.5284 80.2767 20.6121 80.2767 20.6121C80.2767 20.6121 82.542 19.1029 83.0967 20.9481C83.6483 22.7934 77.9526 25.0432 77.0973 25.1147C76.242 25.1801 75.6036 24.3555 75.6036 24.3555Z" fill="#B22975"/>
<path id="Vector_52" fill-rule="evenodd" clip-rule="evenodd" d="M70.7911 46.8968C70.9274 47.4227 71.5906 49.6289 71.0886 52.4699C70.5896 55.3109 69.1208 51.9876 69.1208 51.9876C69.1208 51.9876 68.721 55.4136 66.7067 54.5672C64.6924 53.7208 66.1179 50.6371 66.1179 50.6371C66.1179 50.6371 63.8526 52.1463 63.2979 50.301C62.7463 48.4558 68.4421 46.206 69.2974 46.1344C70.1527 46.0691 70.7911 46.8937 70.7911 46.8937V46.8968Z" fill="#B22975"/>
<path id="Vector_53" fill-rule="evenodd" clip-rule="evenodd" d="M71.2466 24.3492L64.4321 43.5237C64.1315 44.367 66.1086 45.8481 68.848 46.8283C71.5875 47.8116 74.0542 47.9205 74.3517 47.0773L81.1661 27.9028C81.4667 27.0596 79.4865 25.5784 76.7471 24.5982C74.0077 23.6149 71.5441 23.506 71.2435 24.3492H71.2466Z" fill="#FFED6D"/>
<path id="Vector_54" fill-rule="evenodd" clip-rule="evenodd" d="M71.2466 24.3493L64.4322 43.5237C64.4322 43.5237 64.4322 43.5299 64.4291 43.533C65.8391 44.1709 67.5094 44.8493 69.3222 45.4996C71.1351 46.15 72.858 46.6883 74.3517 47.0897C74.3517 47.0866 74.3517 47.0835 74.3548 47.0804L81.1693 27.906C81.1693 27.906 81.1693 27.8997 81.1724 27.8966C79.7624 27.2587 78.0921 26.5804 76.2761 25.93C74.4633 25.2797 72.7434 24.7444 71.2497 24.343C71.2497 24.3461 71.2497 24.3493 71.2466 24.3524V24.3493Z" fill="#2FBDCC"/>
<path id="Vector_55" fill-rule="evenodd" clip-rule="evenodd" d="M70.3945 26.7453L65.0334 41.8309C66.3195 42.4688 68.0145 43.1814 69.9049 43.8598C71.7952 44.5381 73.5585 45.0609 74.9561 45.3876L80.3171 30.302C79.0311 29.6641 77.336 28.9515 75.4457 28.2731C73.5585 27.5979 71.7921 27.072 70.3976 26.7484L70.3945 26.7453Z" fill="#B22975"/>
<path id="Vector_56" fill-rule="evenodd" clip-rule="evenodd" d="M71.575 38.1809C71.5657 38.408 71.9562 38.4049 72.1111 38.3147C72.1824 38.6414 72.5915 38.7254 72.6875 38.5449C73.1431 39.1299 73.3445 38.8406 73.4406 38.3551C73.5521 37.7795 73.5087 36.9206 73.5552 36.9424C74.2649 37.2193 74.55 37.6301 75.2162 37.0078C75.6439 36.6063 75.554 35.956 75.6718 35.427C75.7895 34.9042 76.1645 34.4904 76.2729 34.0921C76.4527 31.2604 72.0832 29.6579 70.4222 31.9854C70.2518 32.3619 70.2859 32.9189 70.0442 33.4013C69.8055 33.8867 69.3221 34.3286 69.3996 34.9136C69.5235 35.816 70.1061 35.7288 70.8282 35.9653C70.8747 35.9778 70.3014 36.6126 70.0256 37.1322C69.7932 37.5679 69.7684 37.9195 70.4904 37.7577C70.4501 37.9568 70.8189 38.1529 71.0823 37.9444C71.1443 38.1124 71.4449 38.3613 71.5812 38.1809H71.575ZM72.5945 35.315H72.6069C72.5729 35.707 72.8858 36.5441 72.4365 36.6094C72.2692 36.6343 72.3064 36.3885 72.2196 36.3605C71.4449 36.7028 71.9965 35.7319 72.5853 35.3119H72.5977L72.5945 35.315ZM71.5967 34.9416C69.852 36.373 69.8241 34.0858 70.7662 33.6378C71.2093 33.4293 72.39 33.4075 72.6782 33.9209C72.6999 33.9583 72.7092 33.9925 72.7123 34.0267C72.7495 34.4219 71.7981 34.7735 71.5936 34.9416H71.5967ZM73.6048 35.6604C73.5521 35.399 73.0377 34.5246 73.3166 34.2414C73.3414 34.2165 73.3724 34.1948 73.4127 34.1823C73.9581 33.9676 74.8598 34.7331 75.0706 35.1781C75.5199 36.1271 74.0541 37.879 73.6048 35.6604Z" fill="#FEFEFE"/>
<g id="Vector_57" style="mix-blend-mode:screen" opacity="0.21">
<path d="M71.6029 45.7455C72.7557 46.1593 74.0386 45.5494 74.4508 44.3887L79.4214 30.4047C79.8335 29.2471 79.2262 27.9588 78.0703 27.545C76.9175 27.1311 75.6345 27.741 75.2224 28.9017L70.2518 42.8858C69.8396 44.0433 70.447 45.3316 71.6029 45.7455Z" fill="#E6E6E6"/>
</g>
</g>
<g id="Group_12">
<g id="Group_13">
<path id="Vector_58" d="M38.1939 26.459L44.4443 52.4699L43.0746 52.6441L36.8489 26.0078L38.1939 26.459Z" fill="#EFDCD7"/>
<path id="Vector_59" d="M43.5333 51.4119C43.6882 51.3746 43.7812 51.219 43.7471 51.0634L39.1143 31.7053C39.0771 31.5498 38.9221 31.4564 38.7672 31.4906C38.6123 31.528 38.5193 31.6836 38.5534 31.8391L43.1862 51.1972C43.2234 51.3528 43.3784 51.4461 43.5333 51.4119Z" fill="#F2F2F2"/>
</g>
<path id="Vector_60" d="M32.8719 28.2101C28.423 26.4782 26.2146 21.4527 27.9393 16.9853C29.6641 12.5179 34.6688 10.3004 39.1178 12.0323C43.5667 13.7642 45.7752 18.7897 44.0504 23.257C42.3257 27.7244 37.3209 29.942 32.8719 28.2101Z" fill="#851658"/>
<g id="Vector_61" style="mix-blend-mode:multiply" opacity="0.21">
<path d="M28.4789 24.399C30.332 27.6788 34.1808 29.4774 38.0173 28.5501C41.6523 27.6726 44.1934 24.6075 44.5869 21.0788C43.5116 23.8327 40.9953 26.0949 37.7074 26.8884C34.1746 27.741 30.6729 26.6768 28.4789 24.3959V24.399Z" fill="#851658"/>
</g>
<path id="Vector_62" d="M27.5925 22.143C27.7878 22.9521 28.0884 23.7082 28.4757 24.399C30.6697 26.6799 34.1715 27.7441 37.7042 26.8915C40.9921 26.098 43.5084 23.8358 44.5838 21.0819C44.6922 20.108 44.6364 19.0967 44.3947 18.0885C43.2791 13.4271 38.6122 10.5581 33.9732 11.6783C29.331 12.7985 26.4738 17.4848 27.5894 22.143H27.5925Z" fill="#851658"/>
<path id="Vector_63" opacity="0.32" d="M34.1901 12.7269C34.4535 11.0124 40.9456 12.1544 40.078 14.1459C38.0823 18.7326 33.9886 14.0463 34.1901 12.7269Z" fill="#FFDFFF"/>
<path id="Vector_64" d="M28.2306 19.3716L42.5792 15.9098C43.4495 15.6999 44.3245 16.2381 44.5337 17.112L45.0954 19.4599C45.3045 20.3339 44.7685 21.2125 43.8982 21.4225L29.5496 24.8842C28.6793 25.0942 27.8042 24.556 27.5951 23.682L27.0333 21.3341C26.8242 20.4602 27.3602 19.5815 28.2306 19.3716Z" fill="#852C6B"/>
<path id="Vector_65" opacity="0.15" d="M29.6782 22.5195L42.802 19.3518C43.3257 19.2242 43.6511 18.6952 43.524 18.1662C43.397 17.6404 42.8701 17.3136 42.3433 17.4412L29.2195 20.6089C28.6958 20.7365 28.3704 21.2655 28.4975 21.7945C28.6245 22.3204 29.1513 22.6471 29.6782 22.5195Z" fill="#FFDFFF"/>
<g id="Vector_66" style="mix-blend-mode:screen" opacity="0.37">
<path d="M33.9764 11.6783C36.44 11.084 38.9098 11.613 40.8497 12.9386C41.9157 13.6636 42.8206 14.6313 43.4776 15.7796C43.9238 15.848 44.305 16.1747 44.4165 16.6415L45.2037 19.9275C45.3338 20.472 45.0518 21.0166 44.5622 21.2375C44.5529 21.3184 44.5405 21.3993 44.5281 21.4802C44.5219 21.5207 44.5157 21.5611 44.5064 21.6016C44.4909 21.6918 44.4754 21.779 44.4568 21.8692C44.4475 21.9097 44.4413 21.9501 44.432 21.9906C44.4104 22.0932 44.3856 22.1959 44.3577 22.2955C44.3515 22.3173 44.3453 22.3422 44.3422 22.364C44.3081 22.4853 44.274 22.6067 44.2368 22.728C44.2244 22.7623 44.2151 22.7965 44.2027 22.8338C44.1748 22.921 44.1439 23.005 44.1129 23.0921C44.1129 23.0921 44.1129 23.0921 44.1129 23.0952C41.6399 24.0474 38.7487 24.0754 36.0309 22.9427C32.3061 21.3931 29.8766 18.0791 29.4179 14.4944C29.6658 14.2019 29.9323 13.9219 30.2205 13.6636C31.2556 12.727 32.5323 12.0299 33.9826 11.6783H33.9764Z" fill="#851658"/>
</g>
</g>
<g id="Group_14">
<g id="Group_15">
<path id="Vector_67" d="M59.5915 28.9048C59.8178 28.2358 60.0719 27.5294 60.6142 27.0782C60.6917 27.0129 60.7784 26.9538 60.8776 26.9413C61.141 26.9071 61.3052 27.2058 61.3517 27.4703C61.5501 28.6154 60.8714 29.8134 61.0511 30.9648C61.7267 30.4824 62.5045 30.1557 63.304 30.0157C63.524 29.9783 63.7936 29.9721 63.9114 30.1588C64.0602 30.3953 63.8432 30.7003 63.6418 30.9088L61.8073 32.8038C62.2783 32.726 62.7524 32.6762 63.2265 32.6513C63.5519 32.6358 63.9176 32.6482 64.1314 32.8847C64.3731 33.1523 64.3112 33.616 64.0694 33.9022C63.8277 34.1885 63.4528 34.3254 63.0871 34.3783C62.7245 34.4312 62.3589 34.4094 61.9932 34.4499C61.2742 34.5277 60.5832 34.8326 59.8674 34.9478C59.2941 35.038 58.5658 34.9851 58.1351 34.565C57.7229 34.1667 57.9398 33.7746 58.1165 33.2581C58.6092 31.808 59.1019 30.358 59.5915 28.9079V28.9048Z" fill="#7DCBCE"/>
<path id="Vector_68" d="M59.948 33.728C61.0264 34.341 62.957 34.0734 64.0757 33.8929C64.0757 33.8929 64.0726 33.8991 64.0695 33.8991C63.8278 34.1854 63.4528 34.3223 63.0871 34.3752C62.7246 34.4281 62.3589 34.4063 61.9932 34.4468C61.2743 34.5246 60.5832 34.8295 59.8674 34.9447C59.2941 35.0349 58.5659 34.982 58.1351 34.5619C57.723 34.1636 57.9399 33.7715 58.1165 33.255C58.4047 32.4024 58.696 31.5498 58.9842 30.6972C59.0276 31.8423 59.1794 33.2892 59.9511 33.728H59.948Z" fill="#5CC3CD"/>
<path id="Vector_69" d="M50.1183 51.1256C50.106 51.3901 50.0223 51.7449 49.7558 51.7449C49.6473 51.7449 49.5512 51.6733 49.4738 51.5986C49.0802 51.219 48.9377 50.6464 48.9191 50.0988C48.9036 49.5511 48.9965 49.0065 48.9934 48.462C48.541 48.8572 48.0514 49.2119 47.5339 49.52C47.2705 49.6756 46.9792 49.8249 46.6755 49.7876C46.6228 49.7814 46.567 49.7689 46.5298 49.7316C46.4338 49.6413 46.4895 49.4826 46.5484 49.3675C46.8738 48.742 47.1961 48.1166 47.5215 47.488C46.8428 47.9019 45.9999 48.0388 45.2283 47.8614C44.999 47.8085 44.7325 47.6685 44.748 47.432C44.7573 47.292 44.8688 47.1831 44.9773 47.099C45.2841 46.8563 45.6342 46.6727 45.9813 46.4923C47.2643 45.8232 48.5472 45.1511 49.8301 44.4821C49.9448 44.423 50.0688 44.3607 50.1958 44.3825C50.2733 44.395 50.3415 44.4354 50.4096 44.479C50.7939 44.7124 51.8599 45.1013 51.8103 45.6085C51.7855 45.8481 51.5159 46.15 51.4075 46.3616C51.2525 46.6541 51.1131 46.9559 50.9829 47.2609C50.4778 48.4713 50.1462 49.8094 50.1183 51.1256Z" fill="#7DCBCE"/>
<path id="Vector_70" d="M49.8301 44.4821C49.9448 44.423 50.0688 44.3607 50.1958 44.3825C50.2733 44.395 50.3415 44.4354 50.4096 44.479C50.7939 44.7124 51.8599 45.1013 51.8103 45.6085C51.7855 45.8481 51.5159 46.15 51.4075 46.3616C51.2525 46.6541 51.1131 46.9559 50.9829 47.2609C50.6328 48.0979 50.3694 48.9941 50.2299 49.9058C49.793 48.1882 49.9355 47.4382 49.2909 46.9964C48.4759 46.4394 46.7467 48.2597 46.8087 46.2589C46.8087 46.1935 46.8087 46.1251 46.8087 46.0597C47.8159 45.5339 48.823 45.008 49.8301 44.4821Z" fill="#5CC3CD"/>
<path id="Vector_71" d="M60.5026 44.4261C58.0575 47.7307 53.2295 48.3469 50.0965 45.8077C47.2114 43.4708 46.6443 39.1642 48.6524 36.1084C50.8433 32.7789 55.5939 31.696 58.9655 34.1232C62.2441 36.485 62.8825 41.2086 60.5026 44.423V44.4261Z" fill="#2FBDCC"/>
<g id="Vector_72" style="mix-blend-mode:multiply" opacity="0.1">
<path d="M49.8424 36.6903C48.0388 39.1704 47.9118 42.2168 49.0707 44.7808C47.106 42.3506 46.9108 38.7628 48.6524 36.1116C50.6078 33.1399 54.5992 31.9605 57.8313 33.4666C54.8719 32.9905 51.6211 34.2445 49.8393 36.6903H49.8424Z" fill="black"/>
</g>
<g id="Clip path group">
<mask id="mask0_3_1322" style="mask-type:luminance" maskUnits="userSpaceOnUse" x="47" y="32" width="15" height="16">
<g id="clippath">
<path id="Vector_73" d="M60.5026 44.4261C58.0575 47.7307 53.2295 48.3469 50.0965 45.8077C47.2114 43.4708 46.6443 39.1642 48.6524 36.1084C50.8433 32.7789 55.5939 31.696 58.9655 34.1232C62.2441 36.485 62.8825 41.2086 60.5026 44.423V44.4261Z" fill="white"/>
</g>
</mask>
<g mask="url(#mask0_3_1322)">
<g id="Group_16">
<g id="Group_17">
<path id="Vector_74" d="M47.6452 32.5237C52.4701 36.5503 57.5399 40.2688 62.8297 43.6575C63.1985 43.1503 63.5673 42.6431 63.936 42.1359C59.1111 38.1093 54.0413 34.3908 48.7515 31.0021C48.3827 31.5093 48.0139 32.0165 47.6452 32.5237Z" fill="#FFED6D"/>
<path id="Vector_75" d="M46.0121 35.3399C50.8371 39.3664 55.9069 43.0849 61.1967 46.4736C61.5654 45.9664 61.9342 45.4592 62.303 44.952C57.478 40.9254 52.4082 37.2069 47.1184 33.8182C46.7496 34.3254 46.3809 34.8326 46.0121 35.3399Z" fill="#FFED6D"/>
<path id="Vector_76" d="M44.2736 37.9662C49.0986 41.9927 54.1683 45.7112 59.4581 49.0999C59.8269 48.5927 60.1957 48.0855 60.5645 47.5783C55.7395 43.5517 50.6697 39.8332 45.3799 36.4445C45.0111 36.9517 44.6423 37.4589 44.2736 37.9662Z" fill="#FFED6D"/>
</g>
</g>
</g>
</g>
<g id="Vector_77" style="mix-blend-mode:overlay" opacity="0.57">
<path d="M60.7754 41.0872C60.6018 42.1856 60.1525 43.2592 59.3933 44.0714C58.9501 44.5474 58.4171 44.924 57.8779 45.288C57.193 45.7517 56.4617 46.2091 55.6405 46.2962C55.0982 46.3522 54.5497 46.2402 54.0198 46.1158C53.6014 46.0162 53.1738 45.9042 52.8236 45.6521C52.5726 45.4685 52.3619 45.1885 52.3743 44.8773C52.3898 44.5661 52.6191 44.311 52.8546 44.1118C53.6541 43.4303 54.6551 43.0445 55.5723 42.531C56.4896 42.0176 57.3821 41.305 57.6827 40.2937C58.0019 39.2233 57.6052 37.9973 58.0793 36.9891C58.2498 36.6281 58.6092 36.2485 59.0431 36.2765C59.8209 36.3263 60.4283 37.4652 60.6359 38.1062C60.794 38.5947 60.8528 39.1113 60.8435 39.6247C60.8373 40.1132 60.8497 40.608 60.7723 41.0934L60.7754 41.0872Z" fill="#F2F2F2"/>
</g>
</g>
<path id="Vector_78" fill-rule="evenodd" clip-rule="evenodd" d="M54.0972 39.6123L54.3699 38.0626C54.3017 38.0471 52.7988 38.2431 52.7988 38.2431L54.0972 39.6123ZM54.9618 41.5477L52.4486 39.049C52.3618 39.1019 52.2813 39.1673 52.21 39.242C51.6987 39.7616 51.6832 40.6298 52.0953 41.4326L52.5633 41.0965L52.8453 41.6411L52.4052 41.918C52.492 42.0301 52.5881 42.1421 52.6965 42.2479C53.6572 43.2032 55.0021 43.4117 55.6931 42.7084C55.7644 42.6337 55.8295 42.5528 55.8822 42.4657L55.312 41.8994C55.1725 42.0643 54.968 42.307 54.968 42.307C54.968 42.307 54.5744 41.9772 54.6023 41.9585C54.6178 41.9492 54.8131 41.722 54.9618 41.5509V41.5477ZM56.9699 38.9526C57.1837 38.9712 57.3541 39.0335 57.4471 39.1268C57.537 39.2139 57.599 39.3726 57.6268 39.5687C57.6795 39.5936 57.7322 39.6309 57.7942 39.6807C59.9231 41.4015 55.938 46.4767 52.5075 43.6699C52.4455 43.6201 52.4052 43.5797 52.3835 43.5424C52.303 43.477 52.2224 43.4086 52.1418 43.3277C52.0241 43.2748 51.9249 43.2032 51.8443 43.1254C51.7637 43.0445 51.6925 42.9449 51.6398 42.8298C51.5561 42.7458 51.4818 42.6617 51.4136 42.5777C51.3764 42.5559 51.333 42.5155 51.2834 42.4564C48.4541 39.0366 53.4712 34.9851 55.2066 37.1073C55.2562 37.1695 55.2934 37.2256 55.3213 37.2753C55.5165 37.3002 55.6746 37.3625 55.7644 37.4496C55.876 37.5616 55.9441 37.7794 55.9503 38.0471C56.3749 38.0937 57.2364 38.2057 57.2364 38.2057L57.3572 37.4247L56.8149 36.9113L56.4183 37.2629L56.5825 37.6768L57.0845 37.7732L57.1062 37.8728L56.4927 37.8977L56.1301 37.2785L56.4586 36.6623L57.0938 36.5721C57.0938 36.5721 57.6888 37.1135 57.7322 37.1882C57.7756 37.266 57.7198 38.3084 57.6795 38.5076C57.6516 38.6383 57.2736 38.8374 56.9761 38.9526H56.9699ZM56.7344 40.4617C56.753 40.5302 56.5701 42.0394 56.5701 42.0394L55.1942 40.748L56.7344 40.4586V40.4617Z" fill="#B22975"/>
</g>
<g id="Group_18">
<path id="Vector_79" d="M39.8518 27.1342C39.8518 27.1342 47.8934 30.5603 48.8882 39.9577C48.8882 39.9577 44.9464 43.2592 40.8559 45.6583C40.8559 45.6583 32.4641 40.8881 32.1139 32.5269C32.1139 32.5269 36.9977 29.7014 39.8518 27.1311V27.1342Z" fill="#FFED6D"/>
<path id="Vector_80" d="M41.8754 28.3011C42.458 28.7025 43.1242 29.2129 43.8091 29.8445C39.5202 33.8089 35.3832 36.1396 33.2047 37.2131C32.8793 36.4601 32.6097 35.6572 32.4176 34.8109C36.6351 32.838 40.2361 29.7979 41.8754 28.3011Z" fill="#B22975"/>
<path id="Vector_81" d="M35.5908 41.0717C35.1228 40.4991 34.6704 39.8767 34.252 39.2046C38.888 37.1509 43.4341 33.283 45.3833 31.5093C45.7706 31.9792 46.1456 32.4926 46.502 33.0496C42.241 37.8075 37.7321 40.1475 35.5908 41.0685V41.0717Z" fill="#B22975"/>
<path id="Vector_82" d="M47.5619 35.0038C47.8593 35.6635 48.1259 36.3729 48.3428 37.1291C45.3245 40.384 41.0573 42.7955 38.572 44.034C38.0978 43.6482 37.5834 43.1938 37.0566 42.6742C41.9622 40.5427 45.78 36.9082 47.5619 35.0038Z" fill="#B22975"/>
<path id="Vector_83" d="M39.8518 27.1342L38.5317 25.345L38.541 26.4652L37.3138 26.1105L37.3634 27.4361L35.9503 26.9849L35.9689 28.4225L34.6581 27.9557L34.7045 29.4338L33.3782 28.9764L33.4433 30.3207L32.1015 29.8757C32.1015 29.8757 32.1263 30.9554 32.0829 30.9866C32.0395 31.0208 30.8681 30.7407 30.8681 30.7407L32.1077 32.5237C32.1077 32.5237 34.9401 31.9387 39.8456 27.128L39.8518 27.1342Z" fill="#B22975"/>
<path id="Vector_84" d="M48.888 39.9577L50.1523 41.8776L48.7454 41.3424L48.6835 43.0725L47.038 42.4253L46.976 44.2456L45.3305 43.5766L45.3336 45.3689L43.7097 44.8182L43.6695 46.4861L42.371 45.8699L42.1169 47.3667L40.8557 45.6583L48.888 39.9577Z" fill="#FFA71B"/>
<g id="Vector_85" style="mix-blend-mode:overlay" opacity="0.33">
<path d="M39.7897 28.5656C40.1399 28.5719 40.5055 28.7057 40.8619 28.8644C43.0218 29.8414 44.8688 31.8329 46.2385 33.9831C46.8397 34.926 47.3789 35.9497 47.5245 36.9828C47.6702 38.0159 47.3355 39.0584 46.5143 39.3726C45.9317 39.5967 45.1725 39.4193 44.5496 38.965C43.9267 38.5107 43.4495 37.8043 43.214 37.0731C43.0032 36.4134 42.9815 35.7444 42.777 35.0816C42.4299 33.9614 41.5344 32.922 40.5086 32.4522C40.0841 32.2592 39.6471 32.1566 39.2195 31.9761C36.8798 30.9928 38.1597 28.5314 39.7897 28.5625V28.5656Z" fill="#E6E6E6"/>
</g>
<g id="Vector_86" style="mix-blend-mode:soft-light" opacity="0.38">
<path d="M34.8997 40.1693C34.7912 40.0199 34.6859 39.8643 34.5805 39.7087C34.5774 39.7025 34.5712 39.6963 34.5681 39.69C34.4627 39.5313 34.3574 39.3695 34.2551 39.2046C33.9483 38.713 33.6632 38.1902 33.406 37.6456C37.9831 41.7749 44.342 42.6337 48.7176 39.3446C48.7486 39.3229 48.7765 39.298 48.8044 39.2731C48.8385 39.4971 48.8664 39.7243 48.8912 39.9545L50.1555 41.8745L48.7486 41.3393L48.6866 43.0694L47.0411 42.4253L46.9761 44.2456L45.3305 43.5766V45.3689L43.7067 44.8182L43.6664 46.4861L42.368 45.8668L42.1139 47.3636L40.8526 45.6552C40.8526 45.6552 39.8734 45.0982 38.5688 44.0309C38.451 43.9344 38.3301 43.8349 38.2093 43.7291C37.8405 43.4148 37.4532 43.06 37.0565 42.6711C36.57 42.1919 36.0742 41.6567 35.5907 41.0685C35.3583 40.7854 35.1321 40.4898 34.909 40.1848C34.9059 40.1786 34.8997 40.1755 34.8966 40.1693H34.8997Z" fill="#E6E6E6"/>
</g>
</g>
<g id="Group_19">
<path id="Vector_87" fill-rule="evenodd" clip-rule="evenodd" d="M85.1204 13.7071C80.0165 5.00677 57.0382 5.00677 51.9312 13.7071C51.9312 13.7071 52.5975 12.1357 53.741 9.48143C56.0373 4.14793 63.3197 -0.236487 68.5258 0.00933968C73.7288 -0.236487 81.0143 4.14793 83.3106 9.47832C84.4541 12.1326 85.1204 13.704 85.1204 13.704V13.7071Z" fill="#AA5C3F"/>
<path id="Vector_88" fill-rule="evenodd" clip-rule="evenodd" d="M41.5003 40.0354C41.5003 23.3877 47.0535 15.4684 57.3325 4.69247C51.7917 10.4056 49.6999 20.1982 49.514 40.0354H41.5034H41.5003Z" fill="#FFA302"/>
<path id="Vector_89" fill-rule="evenodd" clip-rule="evenodd" d="M95.5481 40.0354C95.5481 23.3877 89.9949 15.4684 79.7159 4.69247C85.2567 10.4056 87.3484 20.1982 87.5344 40.0354H95.545H95.5481Z" fill="#FFA302"/>
</g>
<g id="Group_20">
<path id="Vector_90" fill-rule="evenodd" clip-rule="evenodd" d="M64.6367 35.0038C64.3175 35.1127 64.147 35.4643 64.2555 35.7848L74.1348 64.8421C74.2432 65.1626 74.5934 65.3338 74.9126 65.2249C75.2318 65.1159 75.4022 64.7643 75.2938 64.4438L65.4145 35.3865C65.306 35.066 64.9559 34.8949 64.6367 35.0038Z" fill="#EFDCD7"/>
<path id="Vector_91" d="M74.6987 64.7052C74.8475 64.6554 74.928 64.4905 74.8784 64.338L67.0847 41.249C67.0351 41.0997 66.8709 41.0187 66.7191 41.0685C66.5703 41.1183 66.4897 41.2832 66.5393 41.4357L74.333 64.5247C74.3826 64.6741 74.5469 64.7581 74.6987 64.7052Z" fill="#F2F2F2"/>
<path id="Vector_92" fill-rule="evenodd" clip-rule="evenodd" d="M66.4868 36.0711C67.0756 37.9817 70.3914 39.9265 68.5723 39.5842C68.1695 39.4909 67.4784 39.1953 67.215 39.2575C67.0353 38.965 67.5404 41.5197 66.0436 40.0106C65.0334 38.993 65.4548 41.7718 64.7793 40.7418C64.1037 39.7118 64.0727 41.3517 63.673 41.3828C63.1059 41.4264 63.7412 40.219 63.7133 37.2567C64.0449 37.0513 66.4062 36.1956 66.4868 36.0711Z" fill="#F9D068"/>
<path id="Vector_93" fill-rule="evenodd" clip-rule="evenodd" d="M66.465 37.2131C65.2998 37.7234 64.1873 38.0533 63.614 37.9226C63.1058 37.8075 63.0097 37.2691 63.7627 36.9953C64.2462 36.821 66.2202 35.9933 66.6292 36.068C67.0228 35.9715 67.3699 36.8148 66.465 37.2131Z" fill="#3E3B3A"/>
<path id="Vector_94" fill-rule="evenodd" clip-rule="evenodd" d="M60.0411 21.3682C55.7212 22.8494 53.4156 27.5668 54.8907 31.9014C56.3658 36.2391 61.0637 38.5543 65.3805 37.0731C69.7003 35.5919 72.0059 30.8745 70.5308 26.5399C69.0557 22.2022 64.3578 19.887 60.0411 21.3682Z" fill="#FFED6D"/>
<path id="Vector_95" fill-rule="evenodd" clip-rule="evenodd" d="M70.974 28.9826C71.0577 31.9419 69.5485 34.7611 67.0012 36.3138C66.8897 36.3823 66.7781 36.4445 66.6634 36.5068C66.4217 36.6374 66.1738 36.7588 65.9166 36.8677C65.7431 36.9424 65.5633 37.0108 65.3805 37.0731C65.1729 37.1447 64.9652 37.2069 64.7545 37.2598C64.4074 37.35 64.0573 37.4154 63.7102 37.4589C63.5428 37.4807 63.3755 37.4963 63.2113 37.5056C60.1062 37.6985 57.1157 36.1022 55.5477 33.367C55.9196 33.4884 57.8874 35.3834 59.5019 36.1333C62.7898 37.6643 58.157 35.1096 56.9701 32.1348C61.0358 36.1333 61.6463 35.9249 62.2227 36.3169C62.9293 36.7993 60.8065 33.143 61.0111 33.2892C62.1452 34.1076 63.2856 35.8159 63.6575 36.4632C64.299 37.5834 62.3529 29.941 62.3591 29.9441C63.611 31.5653 66.4248 38.5294 65.6656 32.8287C65.3681 30.5945 66.4 35.122 66.3814 35.4923C66.3102 36.7215 68.3616 29.9472 67.7604 27.9464C68.9256 31.2697 67.2615 35.1998 67.2739 35.2029C67.6055 34.8575 68.0548 34.2072 68.3399 33.8151C68.9907 32.9189 70.4503 30.4887 70.9771 28.9857L70.974 28.9826Z" fill="#F9D068"/>
<path id="Vector_96" fill-rule="evenodd" clip-rule="evenodd" d="M68.5722 39.5842C68.1694 39.4909 67.4783 39.1953 67.2149 39.2575C67.1126 39.0895 67.2366 39.8705 67.0723 40.2688C66.9515 40.5613 66.6757 40.6485 66.0435 40.0105C65.8576 39.8238 65.7212 39.7647 65.6159 39.7865C65.151 39.883 65.3308 41.582 64.7792 40.7418C64.1036 39.7118 64.0726 41.3517 63.6729 41.3828C63.4219 41.4015 63.4064 41.1774 63.4652 40.664C63.5024 40.5395 63.5427 40.4088 63.5954 40.2719C64.2028 38.6538 64.1501 38.3364 64.4724 39.5656C64.7048 40.44 64.9713 39.4038 65.2533 38.7161C65.4454 38.2431 65.6469 37.9319 65.8452 38.52C66.028 39.0521 66.496 39.8581 66.6757 39.1019C66.6974 39.0148 66.7129 38.909 66.7253 38.7814C66.7965 38.0253 68.0113 39.41 67.8595 38.6569C67.813 38.4267 68.1818 38.5978 68.5598 38.8032C69.1517 39.4069 69.4275 39.7492 68.5753 39.5874L68.5722 39.5842Z" fill="#FFED6D"/>
<path id="Vector_97" fill-rule="evenodd" clip-rule="evenodd" d="M66.9267 28.0553C67.5031 29.7481 66.3317 32.2344 64.1036 32.9967C63.3692 33.2488 62.6068 33.283 61.9003 33.1492C60.4686 32.8847 59.2476 31.9512 58.8603 30.8185C58.2839 29.1289 59.793 27.6321 62.0211 26.8697C64.147 26.1416 66.1613 26.3407 66.8399 27.8344C66.8709 27.9028 66.9019 27.9775 66.9267 28.0522V28.0553Z" fill="#B22975"/>
<path id="Vector_98" fill-rule="evenodd" clip-rule="evenodd" d="M63.8217 30.3611C63.893 30.5634 63.6389 31.083 63.3011 31.2013C62.9664 31.3195 62.5449 31.0457 62.4706 30.8403C62.3993 30.638 62.6441 30.3642 63.016 30.2304C63.3879 30.0966 63.7473 30.1557 63.8217 30.358V30.3611Z" fill="#FCED00"/>
<path id="Vector_99" fill-rule="evenodd" clip-rule="evenodd" d="M60.6794 27.7535C60.6794 27.7535 60.4842 27.8593 60.2115 28.1082C59.9078 28.3852 59.505 28.8364 59.1579 29.5209C59.0618 29.7076 58.972 29.913 58.8914 30.1339C58.8914 30.1339 57.2985 28.074 58.0516 26.2723C58.0516 26.2723 59.1176 25.9642 60.6763 27.7566L60.6794 27.7535Z" fill="#B22975"/>
<path id="Vector_100" fill-rule="evenodd" clip-rule="evenodd" d="M66.5083 27.6321C66.5083 27.6321 66.2914 27.4796 65.9164 27.3116C65.5166 27.1342 64.9371 26.9444 64.2554 26.9133C64.0942 26.9071 63.9269 26.9071 63.7565 26.9195C63.7565 26.9195 63.7936 25.0556 65.3896 23.9229C65.3896 23.9229 66.7283 25.3979 66.5114 27.6321H66.5083Z" fill="#B22975"/>
<g id="Vector_101" style="mix-blend-mode:soft-light" opacity="0.44">
<path d="M56.6695 25.4663C57.1839 24.6697 57.8905 24.0163 58.7272 23.5744C59.9667 22.9241 61.5936 22.4884 63.4747 22.7405C66.1025 23.0921 70.7323 25.6437 68.5321 26.4559C66.3349 27.268 64.6491 25.8833 62.012 26.2194C59.3748 26.5586 57.9989 31.4564 56.3658 30.025C54.9217 28.7586 55.8669 26.7048 56.6664 25.4632L56.6695 25.4663Z" fill="white"/>
</g>
<path id="Vector_102" fill-rule="evenodd" clip-rule="evenodd" d="M60.2114 28.1082C59.9077 28.3851 59.5049 28.8363 59.1578 29.5209C58.9409 29.16 58.4389 28.186 58.5597 27.1591C58.5597 27.1591 59.1175 26.9693 60.2083 28.1113L60.2114 28.1082Z" fill="#FFED6D"/>
<path id="Vector_103" fill-rule="evenodd" clip-rule="evenodd" d="M65.9165 27.3116C65.5168 27.1342 64.9373 26.9444 64.2555 26.9133C64.3764 26.543 64.6956 25.6748 65.2657 25.0152C65.2657 25.0152 66.0126 25.9922 65.9165 27.3085V27.3116Z" fill="#FFED6D"/>
<g id="Group_21">
<path id="Vector_104" fill-rule="evenodd" clip-rule="evenodd" d="M62.3218 30.2024C61.0884 31.4907 59.5607 30.582 59.4429 29.6267C59.5886 29.3405 60.0782 29.1942 60.6236 29.2315C60.6639 29.6361 60.9242 30.2491 61.1442 30.4669C60.8808 29.7885 60.887 29.5272 60.8901 29.2658C61.4634 29.3653 62.046 29.6641 62.3218 30.2055V30.2024Z" fill="#FCED00"/>
<path id="Vector_105" fill-rule="evenodd" clip-rule="evenodd" d="M63.5955 29.7668C65.3556 30.0281 66.0126 28.3727 65.5199 27.5419C65.2317 27.405 64.7545 27.5917 64.3454 27.9557C64.5592 28.298 64.7266 28.9484 64.6863 29.2502C64.4818 28.5501 64.3175 28.3478 64.1564 28.1424C63.7628 28.5719 63.4839 29.1662 63.5955 29.7636V29.7668Z" fill="#FCED00"/>
</g>
</g>
<path id="Vector_106" fill-rule="evenodd" clip-rule="evenodd" d="M106.589 37.823C106.338 44.0527 104.101 99.7339 103.487 108.313H33.8181L31.5621 37.823H106.589Z" fill="#EF8337"/>
<g id="Group_22">
<path id="Vector_107" fill-rule="evenodd" clip-rule="evenodd" d="M89.0404 51.0821L93.5864 61.4317L73.7535 64.1357L89.0404 51.0821Z" fill="#4A001D"/>
<path id="Vector_108" fill-rule="evenodd" clip-rule="evenodd" d="M45.5289 62.3527V62.359L43.2543 62.0509L47.7663 51.6857L49.5203 53.1669V53.1731L63.0903 64.6896L45.5289 62.3527Z" fill="#4A001D"/>
<path id="Vector_109" fill-rule="evenodd" clip-rule="evenodd" d="M43.6943 67.9009L43.1768 70.0854C43.1768 70.0854 45.7891 71.6319 46.0494 71.8435C46.1951 71.9742 46.6971 70.7202 47.1031 69.6466C48.0451 70.0854 49.0027 70.4743 49.9757 70.854L49.3095 73.6545L53.6448 74.781L54.3421 72.2698C55.6219 72.6121 56.9204 72.9201 58.2715 73.166L57.7044 76.8503L63.0128 77.4539L63.5644 73.9003C64.8628 74.0124 66.1953 74.0777 67.5248 74.1119C67.5062 75.3006 67.4411 76.8005 67.4411 76.8005L73.1059 76.6387L72.9416 73.9346C74.4818 73.8039 75.994 73.6234 77.4722 73.362L78.219 77.1614L82.731 76.3773L81.7889 72.4503C83.137 72.108 84.4509 71.7159 85.7338 71.2616L87.0013 73.9657L90.4597 72.665L90.3109 69.3883C92.601 68.2961 94.7423 67.0421 96.676 65.6232C96.5149 66.5536 96.3104 67.4653 96.0624 68.3615C95.9695 68.7069 95.8734 69.0492 95.768 69.3883C94.7113 72.7117 93.072 75.7767 90.9772 78.4497C90.3295 77.457 89.6787 76.5111 89.6787 76.5111L85.427 78.6644C85.427 78.6644 85.8981 79.85 86.3784 81.1787C86.3784 81.1787 86.3846 81.1755 86.3846 81.1724C86.5148 81.5427 86.6449 81.9255 86.7689 82.2958C86.8154 82.4296 86.8587 82.5603 86.9021 82.691C85.7989 83.6182 84.6151 84.4833 83.3632 85.2488L82.8922 82.3798L79.5516 82.7003L79.3067 82.7252H79.2881L79.316 85.3639C79.316 85.3639 79.316 85.3639 79.3191 85.3639L79.3377 87.3025C78.5692 87.623 77.779 87.9062 76.9764 88.152C76.6355 88.2609 76.2915 88.3636 75.9444 88.4632L75.9785 86.1325L70.7879 86.3939V89.3594C70.509 89.3936 70.2332 89.4092 69.9605 89.4247C69.4585 89.4558 68.9378 89.4559 68.4203 89.4559H68.2406C67.7541 89.4559 67.2861 89.4403 66.812 89.4247L66.843 87.4892L66.874 85.5631L66.843 85.5569V85.5631L65.6933 85.367L65.433 85.3204L62.7246 84.8287L61.5563 88.6281C61.3456 88.5783 61.1317 88.5286 60.9241 88.4632C59.9666 88.2018 59.0431 87.9062 58.1165 87.5484C57.4193 87.2714 56.7189 86.9789 56.0558 86.6553L56.4462 84.8941C56.4462 84.8941 56.4493 84.8941 56.4524 84.8941L56.7871 83.4098L52.5044 81.4058L51.5593 80.9515L50.6699 83.2791C49.6968 82.5136 48.7858 81.6797 47.9274 80.8021L48.3798 79.321L48.6711 78.375L45.5381 76.5484L45.2127 77.5753C42.6995 74.1026 40.9425 70.0449 40.1832 65.6294C41.2864 66.4447 42.4702 67.2101 43.7036 67.9103L43.6943 67.9009Z" fill="#4A001D"/>
<path id="Vector_110" fill-rule="evenodd" clip-rule="evenodd" d="M63.8341 68.0316L66.7439 62.25L67.7325 60.2928C67.9463 60.4795 70.7322 65.4987 71.7084 67.2724C71.9191 67.6551 72.0461 67.8854 72.0461 67.8854L63.8341 68.0347V68.0316Z" fill="#4A001D"/>
</g>
<path id="Vector_111" fill-rule="evenodd" clip-rule="evenodd" d="M103.955 96.6626C103.627 103.832 103.652 106.023 103.487 108.313H33.8181L32.9566 80.2607C50.1617 98.6323 93.5399 101.399 103.955 96.6626Z" fill="#DD7322"/>
<g id="Group_23">
<path id="Vector_112" d="M64.2337 99.3013C64.2337 99.3013 72.641 96.9146 79.2788 103.617C79.2788 103.617 78.2655 108.671 76.5704 113.114C76.5704 113.114 67.0537 114.67 61.5655 108.375C61.5655 108.375 63.6108 103.101 64.2368 99.3044L64.2337 99.3013Z" fill="#FFED6D"/>
<path id="Vector_113" d="M66.5392 98.9404C67.2458 98.8844 68.0825 98.8657 69.009 98.9279C68.1351 104.716 66.3657 109.131 65.3368 111.341C64.6117 110.958 63.9021 110.504 63.2265 109.965C65.2842 105.774 66.1983 101.14 66.5392 98.9435V98.9404Z" fill="#B22975"/>
<path id="Vector_114" d="M69.6041 112.847C68.8821 112.694 68.1414 112.495 67.3977 112.234C69.7312 107.715 70.8654 101.841 71.2775 99.236C71.8725 99.3605 72.4861 99.5223 73.1121 99.7339C72.7557 106.122 70.698 110.784 69.6041 112.847Z" fill="#B22975"/>
<path id="Vector_115" d="M75.1542 100.59C75.7988 100.916 76.4464 101.302 77.0879 101.756C76.7656 106.191 74.9404 110.756 73.7752 113.282C73.1647 113.279 72.4798 113.248 71.7454 113.173C74.24 108.425 74.9497 103.194 75.1542 100.59Z" fill="#B22975"/>
<path id="Vector_116" d="M64.2336 99.3013L62.0892 98.7381L62.7958 99.6063L61.6182 100.101L62.4828 101.103L61.1007 101.641L62.0117 102.752L60.6978 103.213L61.6554 104.336L60.3383 104.812L61.2277 105.82L59.9045 106.315C59.9045 106.315 60.5955 107.14 60.5831 107.193C60.5708 107.246 59.4861 107.765 59.4861 107.765L61.5624 108.375C61.5624 108.375 63.4062 106.138 64.2336 99.3044V99.3013Z" fill="#B22975"/>
<path id="Vector_117" d="M79.2788 103.617L81.4604 104.321L80.0288 104.787L81.0576 106.175L79.3749 106.704L80.4595 108.164L78.7613 108.677L79.88 110.071L78.2686 110.665L79.2788 111.991L77.8812 112.324L78.6188 113.649L76.5704 113.114L79.2788 103.617Z" fill="#FFA71B"/>
<g id="Vector_118" style="mix-blend-mode:overlay" opacity="0.33">
<path d="M65.0798 100.459C65.3587 100.244 65.7275 100.117 66.1025 100.02C68.3956 99.4227 71.0762 99.8148 73.484 100.63C74.5407 100.988 75.6006 101.445 76.3567 102.161C77.1159 102.877 77.5033 103.897 77.0601 104.66C76.744 105.198 76.0437 105.54 75.2752 105.578C74.5066 105.615 73.6947 105.363 73.0564 104.943C72.48 104.56 72.0461 104.053 71.4728 103.664C70.506 103.007 69.158 102.762 68.0641 103.039C67.6116 103.154 67.2088 103.35 66.7625 103.477C64.3237 104.181 63.7876 101.458 65.0798 100.459Z" fill="#E6E6E6"/>
</g>
<g id="Vector_119" style="mix-blend-mode:soft-light" opacity="0.38">
<path d="M68.5009 112.579C68.3212 112.529 68.1445 112.476 67.9648 112.42C67.9586 112.42 67.9493 112.417 67.9431 112.414C67.7603 112.358 67.5805 112.296 67.3977 112.234C66.8523 112.041 66.3038 111.817 65.7646 111.552C71.9097 111.891 77.4009 108.565 78.7613 103.25C78.7706 103.213 78.7768 103.175 78.7861 103.141C78.9504 103.297 79.1177 103.452 79.2788 103.617L81.4604 104.321L80.0288 104.787L81.0576 106.175L79.3718 106.707L80.4564 108.167L78.7582 108.68L79.8769 110.077L78.2686 110.668L79.2788 111.994L77.8812 112.33L78.6157 113.656L76.5673 113.117C76.5673 113.117 75.4548 113.298 73.7721 113.289C73.6203 113.289 73.4653 113.285 73.3042 113.279C73.3042 113.279 73.3042 113.279 73.3011 113.279C72.8176 113.267 72.2939 113.236 71.7423 113.18C71.0637 113.111 70.3447 113.008 69.601 112.853C69.2446 112.778 68.8821 112.691 68.5195 112.592C68.5133 112.592 68.5071 112.588 68.5009 112.585V112.579Z" fill="#E6E6E6"/>
</g>
</g>
<g id="Group_24">
<path id="Vector_120" fill-rule="evenodd" clip-rule="evenodd" d="M29.2563 109.467C28.8101 109.769 26.957 111.132 24.1215 111.608C21.2891 112.084 23.917 109.586 23.917 109.586C23.917 109.586 20.5671 110.348 20.691 108.16C20.815 105.973 24.1835 106.29 24.1835 106.29C24.1835 106.29 22.0111 104.647 23.5575 103.508C25.1069 102.37 29.12 107.012 29.4702 107.796C29.8172 108.584 29.2563 109.464 29.2563 109.464V109.467Z" fill="#B22975"/>
<path id="Vector_121" fill-rule="evenodd" clip-rule="evenodd" d="M52.024 106.505C52.4702 106.2 54.3234 104.837 57.1558 104.364C59.9913 103.888 57.3603 106.39 57.3603 106.39C57.3603 106.39 60.7102 105.624 60.5893 107.812C60.4654 109.999 57.0969 109.682 57.0969 109.682C57.0969 109.682 59.2692 111.325 57.7229 112.464C56.1765 113.603 52.1604 108.96 51.8102 108.176C51.4631 107.389 52.024 106.511 52.024 106.511V106.505Z" fill="#B22975"/>
<path id="Vector_122" fill-rule="evenodd" clip-rule="evenodd" d="M30.7037 113.597L50.9798 113.65C51.8722 113.65 52.6005 111.288 52.6098 108.366C52.6191 105.444 51.9001 103.073 51.0077 103.073L30.7316 103.02C29.8391 103.02 29.1109 105.385 29.1016 108.307C29.0923 111.229 29.8112 113.597 30.7037 113.6V113.597Z" fill="#FFED6D"/>
<path id="Vector_123" fill-rule="evenodd" clip-rule="evenodd" d="M30.7036 113.597L50.9796 113.65C50.9796 113.65 50.9858 113.65 50.9889 113.65C51.1191 112.103 51.1966 110.295 51.2028 108.363C51.2089 106.43 51.1377 104.619 51.0168 103.073C51.0137 103.073 51.0106 103.073 51.0075 103.073L30.7315 103.02C30.7315 103.02 30.7253 103.02 30.7222 103.02C30.592 104.566 30.5146 106.377 30.5084 108.31C30.5022 110.242 30.5734 112.05 30.6943 113.6H30.7036V113.597Z" fill="#2FBDCC"/>
<path id="Vector_124" fill-rule="evenodd" clip-rule="evenodd" d="M33.2384 113.603L49.1915 113.646C49.3589 112.215 49.4642 110.373 49.4704 108.36C49.4766 106.343 49.3805 104.501 49.2194 103.07L33.2663 103.026C33.099 104.457 32.9936 106.3 32.9874 108.316C32.9812 110.329 33.0773 112.175 33.2384 113.606V113.603Z" fill="#B22975"/>
<path id="Vector_125" fill-rule="evenodd" clip-rule="evenodd" d="M43.5796 108.671C43.7965 108.602 43.6633 108.235 43.5269 108.12C43.8089 107.943 43.7531 107.526 43.5517 107.498C43.9484 106.872 43.6106 106.776 43.1241 106.847C42.5446 106.931 41.7543 107.258 41.7574 107.211C41.7791 106.446 42.0704 106.038 41.2647 105.618C40.7441 105.347 40.1646 105.649 39.6285 105.715C39.0986 105.78 38.5842 105.559 38.1751 105.593C35.4574 106.368 35.4109 111.039 38.1472 111.835C38.5563 111.87 39.0707 111.652 39.6037 111.72C40.1367 111.786 40.7162 112.094 41.2368 111.826C42.0425 111.406 41.7667 110.886 41.7482 110.121C41.7451 110.074 42.5322 110.404 43.1117 110.491C43.5982 110.566 43.9391 110.472 43.5424 109.844C43.7438 109.816 43.8027 109.399 43.5207 109.222C43.6571 109.106 43.7934 108.739 43.5765 108.671H43.5796ZM40.5489 108.661V108.649C40.9269 108.552 41.6087 107.977 41.8163 108.381C41.8969 108.531 41.6521 108.577 41.6552 108.671C42.2347 109.29 41.1377 109.091 40.5489 108.674V108.661ZM40.5334 109.732C42.4578 110.905 40.3227 111.695 39.5851 110.952C39.2411 110.6 38.829 109.492 39.2133 109.047C39.2412 109.016 39.269 108.994 39.3031 108.979C39.6626 108.811 40.3072 109.595 40.5334 109.732ZM40.5396 107.591C40.3134 107.728 39.6626 108.506 39.3031 108.338C39.2721 108.322 39.2411 108.3 39.2164 108.269C38.8321 107.824 39.2535 106.717 39.5975 106.368C40.3382 105.627 42.4702 106.43 40.5396 107.594V107.591Z" fill="#FEFEFE"/>
<g id="Vector_126" style="mix-blend-mode:screen" opacity="0.21">
<path d="M50.6728 106.119C50.6759 104.89 49.675 103.879 48.4509 103.876L33.663 103.835C32.439 103.832 31.4318 104.837 31.4287 106.066C31.4256 107.295 32.4266 108.307 33.6506 108.31L48.4385 108.35C49.6626 108.353 50.6697 107.348 50.6728 106.119Z" fill="#E6E6E6"/>
</g>
</g>
<g id="Group_25">
<g id="Group_26">
<path id="Vector_127" d="M14.3758 102.712C12.4762 105.659 13.7994 109.912 17.3352 112.212C20.8711 114.515 25.2808 113.995 27.1835 111.048C29.0831 108.104 27.7599 103.848 24.221 101.545C20.6851 99.2422 16.2754 99.7619 14.3758 102.709V102.712Z" fill="#2FBDCC"/>
<g id="Vector_128" style="mix-blend-mode:color-burn">
<path d="M15.0575 102.17C13.4802 104.616 14.9398 108.381 18.3207 110.581C21.7015 112.781 25.7239 112.585 27.3012 110.139C28.8786 107.694 27.419 103.928 24.0381 101.728C20.6572 99.5285 16.6349 99.7245 15.0606 102.17H15.0575Z" fill="#E6E7E8"/>
</g>
<g id="Vector_129" style="mix-blend-mode:screen" opacity="0.35">
<path d="M16.1051 101.853C16.009 102.002 16.009 102.086 16.0121 102.121C16.0989 102.998 20.0841 102.071 22.8731 103.95C25.5536 105.758 26.2539 109.567 27.0566 109.309C27.0937 109.296 27.1681 109.259 27.2642 109.113C27.9274 108.089 26.9605 104.09 23.8802 102.083C20.7999 100.076 16.7682 100.823 16.1082 101.847L16.1051 101.853Z" fill="#E6E6E6"/>
</g>
</g>
<g id="Vector_130" style="mix-blend-mode:color-burn">
<path d="M18.6894 105.727C18.9373 107.043 20.0157 108.764 21.7511 109.576C23.4865 110.388 24.3015 111.157 23.0743 111.247C21.8472 111.337 19.9754 110.927 17.3352 108.472C14.698 106.016 14.9304 104.8 15.0048 104.271C15.2868 102.245 18.3268 103.798 18.6894 105.727Z" fill="#E6E7E8"/>
</g>
</g>
<g id="Group_27">
<g id="Group_28">
<path id="Vector_131" fill-rule="evenodd" clip-rule="evenodd" d="M89.4432 100.117C92.13 100.733 96.3693 103.266 98.5106 104.604C99.4743 102.198 101.82 100.512 104.56 100.552C107.296 100.596 109.589 102.357 110.479 104.79C112.198 104.165 119.159 100.394 119.682 100.593C119.735 100.954 119.788 101.526 119.685 102.214C119.568 103.017 119.357 103.166 119.304 103.866C119.236 104.75 119.543 104.834 119.521 105.73C119.493 106.741 119.103 106.751 119.075 107.675C119.047 108.705 119.53 108.789 119.54 109.912C119.549 110.743 119.286 110.893 119.245 111.845C119.214 112.607 119.354 113.236 119.478 113.65C117.77 113.03 115.889 112.249 113.924 111.204C112.294 110.336 111.015 109.539 110.472 109.203C109.561 111.714 107.166 113.5 104.358 113.457C101.548 113.413 99.2109 111.552 98.3804 109.013C96.1771 110.289 91.9193 112.651 89.2387 113.173C89.4215 112.831 89.6199 112.315 89.5331 111.73C89.4277 111.029 89.0094 110.911 88.8823 110.186C88.7398 109.383 89.2046 109.246 89.1086 108.384C89.0094 107.467 88.4578 107.401 88.464 106.633C88.4702 105.839 89.0528 105.746 89.0869 104.89C89.1209 104.075 88.6003 103.913 88.7336 103.281C88.8854 102.559 89.6168 102.506 89.8368 101.788C89.9422 101.442 89.9391 100.913 89.437 100.12L89.4432 100.117Z" fill="#2FBDCC"/>
<g id="Vector_132" style="mix-blend-mode:multiply">
<path fill-rule="evenodd" clip-rule="evenodd" d="M98.4642 104.887C98.5138 108.661 101.504 111.736 105.242 111.795C107.147 111.826 108.883 111.067 110.15 109.816C109.103 111.991 106.896 113.478 104.355 113.438C100.853 113.382 98.0583 110.451 98.1141 106.888C98.1234 106.184 98.2473 105.515 98.4611 104.887H98.4642Z" fill="#CFD1CF"/>
</g>
<g id="Vector_133" style="mix-blend-mode:multiply">
<path fill-rule="evenodd" clip-rule="evenodd" d="M90.0009 102.491C90.5216 102.631 98.1386 105.245 97.9527 105.198C97.7637 105.154 91.2343 104.311 90.0443 104.156C88.8575 104 89.1333 103.86 89.1333 103.86C89.8708 103.35 90.0009 102.491 90.0009 102.491Z" fill="#CFD1CF"/>
</g>
<g id="Vector_134" style="mix-blend-mode:multiply">
<path fill-rule="evenodd" clip-rule="evenodd" d="M89.1921 106.779C90.472 106.72 98.2068 106.735 97.6769 106.925C97.147 107.115 89.158 109.066 89.2758 109.001C89.6818 107.992 89.44 107.46 89.1921 106.779Z" fill="#CFD1CF"/>
</g>
<g id="Vector_135" style="mix-blend-mode:multiply">
<path fill-rule="evenodd" clip-rule="evenodd" d="M89.6756 110.687C90.2675 110.566 97.8443 108.095 97.4786 108.419C97.113 108.742 90.1374 111.599 90.1374 111.599C90.1374 111.599 90.4535 111.247 90.0723 110.955C89.6911 110.662 89.6756 110.687 89.6756 110.687Z" fill="#CFD1CF"/>
</g>
<g id="Vector_136" style="mix-blend-mode:multiply">
<path fill-rule="evenodd" clip-rule="evenodd" d="M117.817 102.926C117.321 103.088 110.079 105.985 110.258 105.936C110.438 105.886 116.713 104.794 117.854 104.591C118.994 104.389 118.721 104.261 118.721 104.261C117.984 103.779 117.817 102.926 117.817 102.926Z" fill="#CFD1CF"/>
</g>
<g id="Vector_137" style="mix-blend-mode:multiply">
<path fill-rule="evenodd" clip-rule="evenodd" d="M118.957 106.374C117.717 106.365 110.237 106.673 110.76 106.841C111.281 107.012 119.103 108.655 118.988 108.596C118.545 107.603 118.752 107.062 118.96 106.374H118.957Z" fill="#CFD1CF"/>
</g>
<g id="Vector_138" style="mix-blend-mode:multiply">
<path fill-rule="evenodd" clip-rule="evenodd" d="M118.601 110.522C118.021 110.426 110.574 108.244 110.943 108.556C111.312 108.867 118.198 111.453 118.198 111.453C118.198 111.453 117.875 111.113 118.229 110.805C118.582 110.497 118.601 110.522 118.601 110.522Z" fill="#CFD1CF"/>
</g>
</g>
<path id="Vector_139" fill-rule="evenodd" clip-rule="evenodd" d="M107.218 103.866C108.768 109.623 107.299 112.327 107.218 110.189C107.2 109.719 106.53 111.076 106.152 111.35C105.093 112.112 105.464 110.681 105.449 110.295C105.433 109.984 104.036 111.042 103.81 111.117C102.366 111.605 103.419 109.8 103.435 109.393C103.289 109.452 103.06 109.663 102.942 109.766C102.313 110.32 101.516 111.092 101.774 109.676C101.885 109.053 101.833 109.1 101.414 109.433C100.106 110.472 102.372 107.852 102.257 104.526C102.161 101.666 106.32 101.43 107.218 103.866Z" fill="#FAF6E2"/>
<path id="Vector_140" fill-rule="evenodd" clip-rule="evenodd" d="M105.539 103.325C105.31 103.39 105.229 103.826 105.362 104.302C105.496 104.775 105.79 105.108 106.019 105.042C106.252 104.977 106.329 104.541 106.196 104.065C106.063 103.592 105.768 103.259 105.539 103.325Z" fill="#080405"/>
<path id="Vector_141" fill-rule="evenodd" clip-rule="evenodd" d="M104.259 103.179C104.023 103.138 103.766 103.499 103.683 103.984C103.602 104.47 103.729 104.896 103.965 104.937C104.2 104.977 104.457 104.616 104.541 104.131C104.622 103.645 104.494 103.219 104.259 103.179Z" fill="#080405"/>
<g id="Vector_142" style="mix-blend-mode:overlay">
<path d="M108.086 108.829C107.268 108.528 107.807 105.559 106.162 104.24C103.71 102.273 101.293 105.058 101.445 103.816C101.932 99.7743 107.252 100.549 109.199 103.312C110.59 105.288 109.967 109.52 108.086 108.829Z" fill="#55E3EB"/>
</g>
</g>
<g id="Group_29">
<g id="Group_30">
<path id="Vector_143" d="M87.2802 103.222C85.2691 106.337 86.6729 110.837 90.4132 113.273C94.1536 115.709 98.8205 115.159 100.829 112.044C102.84 108.929 101.436 104.429 97.6956 101.993C93.9553 99.5565 89.2914 100.107 87.2802 103.222Z" fill="#B22975"/>
<g id="Vector_144" style="mix-blend-mode:color-burn">
<path d="M87.9991 102.65C86.3288 105.235 87.8752 109.218 91.4513 111.546C95.0274 113.874 99.2822 113.665 100.949 111.079C102.62 108.493 101.073 104.51 97.4972 102.18C93.9211 99.8521 89.6663 100.061 87.9991 102.646V102.65Z" fill="#E6E7E8"/>
</g>
<g id="Vector_145" style="mix-blend-mode:screen" opacity="0.35">
<path d="M89.1055 102.313C89.0032 102.472 89.0032 102.562 89.0063 102.597C89.0993 103.524 93.3138 102.544 96.2639 104.532C99.0994 106.443 99.8401 110.476 100.686 110.202C100.726 110.189 100.804 110.152 100.906 109.996C101.606 108.913 100.584 104.685 97.3269 102.562C94.0668 100.44 89.8059 101.231 89.1055 102.313Z" fill="#E6E6E6"/>
</g>
</g>
<g id="Vector_146" style="mix-blend-mode:color-burn">
<path d="M91.8417 106.412C92.1051 107.803 93.2455 109.623 95.08 110.482C96.9146 111.341 97.7761 112.156 96.4776 112.249C95.1792 112.343 93.199 111.91 90.4069 109.315C87.6148 106.717 87.8627 105.431 87.9402 104.871C88.2408 102.727 91.4543 104.37 91.8386 106.412H91.8417Z" fill="#E6E7E8"/>
</g>
</g>
<g id="Group_31">
<g id="Group_32">
<path id="Vector_147" d="M77.2429 102.08C75.2317 105.195 76.6355 109.694 80.3759 112.131C84.1162 114.567 88.7832 114.017 90.7912 110.902C92.8024 107.787 91.3986 103.287 87.6583 100.851C83.9179 98.4145 79.2541 98.9653 77.2429 102.08Z" fill="#FFED6D"/>
<g id="Vector_148" style="mix-blend-mode:color-burn">
<path d="M77.9649 101.508C76.2946 104.093 77.841 108.076 81.4171 110.404C84.9932 112.732 89.248 112.523 90.9152 109.937C92.5855 107.351 91.0392 103.368 87.463 101.038C83.8869 98.7101 79.6321 98.9186 77.9649 101.504V101.508Z" fill="#E6E7E8"/>
</g>
<g id="Vector_149" style="mix-blend-mode:screen" opacity="0.35">
<path d="M79.0713 101.171C78.9691 101.33 78.9691 101.42 78.9722 101.455C79.0651 102.382 83.2796 101.402 86.2298 103.39C89.0652 105.301 89.8059 109.334 90.6519 109.06C90.6922 109.047 90.7696 109.01 90.8719 108.854C91.5723 107.771 90.5496 103.543 87.2927 101.42C84.0326 99.2982 79.7717 100.089 79.0713 101.171Z" fill="#E6E6E6"/>
</g>
</g>
<g id="Vector_150" style="mix-blend-mode:color-burn">
<path d="M81.8043 105.27C82.0677 106.661 83.2081 108.481 85.0427 109.34C86.8772 110.199 87.7387 111.014 86.4403 111.107C85.1419 111.201 83.1617 110.768 80.3696 108.173C77.5775 105.575 77.8254 104.289 77.9028 103.729C78.2034 101.585 81.417 103.228 81.8012 105.27H81.8043Z" fill="#E6E7E8"/>
</g>
</g>
</g>
</g>
</g>
</g>
</g>
<defs>
<clipPath id="clip0_3_1322">
<rect width="120" height="116.69" fill="white" transform="matrix(-1 0 0 1 120 0)"/>
</clipPath>
</defs>
</svg>
